HIERARCHY
ROOT HipCenter
{
    OFFSET 0.0 0.0 -0.0
    CHANNELS 6 Xposition Yposition Zposition Zrotation Xrotation Yrotation
    JOINT Spine
    {
        OFFSET 0.0 11.54593563079834 0.0
        CHANNELS 3 Zrotation Xrotation Yrotation
        JOINT ShoulderCenter
        {
            OFFSET 0.0 32.728885650634766 0.0
            CHANNELS 3 Zrotation Xrotation Yrotation
            JOINT LeftShoulder
            {
                OFFSET 19.0728759765625 0.0 0.0
                CHANNELS 3 Zrotation Xrotation Yrotation
                JOINT LeftElbow
                {
                    OFFSET 28.858617782592773 0.0 0.0
                    CHANNELS 3 Zrotation Xrotation Yrotation
                    JOINT LeftWrist
                    {
                        OFFSET 29.32784652709961 0.0 0.0
                        CHANNELS 3 Zrotation Xrotation Yrotation
                        JOINT LeftHand
                        {
                            OFFSET 3.768887519836426 0.0 0.0
                            CHANNELS 3 Zrotation Xrotation Yrotation
                            End Site
                            {
                                OFFSET 1.5075551271438599 0.0 0.0
                            }
                        }
                    }
                }
            }
            JOINT RightShoulder
            {
                OFFSET -19.0728759765625 0.0 0.0
                CHANNELS 3 Zrotation Xrotation Yrotation
                JOINT RightElbow
                {
                    OFFSET -28.858617782592773 0.0 0.0
                    CHANNELS 3 Zrotation Xrotation Yrotation
                    JOINT RightWrist
                    {
                        OFFSET -29.32784652709961 0.0 0.0
                        CHANNELS 3 Zrotation Xrotation Yrotation
                        JOINT RightHand
                        {
                            OFFSET -3.768887519836426 0.0 0.0
                            CHANNELS 3 Zrotation Xrotation Yrotation
                            End Site
                            {
                                OFFSET -1.5075551271438599 0.0 0.0
                            }
                        }
                    }
                }
            }
            End Site
            {
                OFFSET 0.0 13.091553688049316 0.0
            }
        }
    }
    JOINT LeftHip
    {
        OFFSET 13.480035781860352 0.0 0.0
        CHANNELS 3 Zrotation Xrotation Yrotation
        JOINT LeftKnee
        {
            OFFSET 0.0 -41.1805419921875 0.0
            CHANNELS 3 Zrotation Xrotation Yrotation
            JOINT LeftAnkle
            {
                OFFSET 0.0 -42.329689025878906 0.0
                CHANNELS 3 Zrotation Xrotation Yrotation
                JOINT LeftFoot
                {
                    OFFSET 0.0 -13.485422134399414 0.0
                    CHANNELS 3 Zrotation Xrotation Yrotation
                    End Site
                    {
                        OFFSET 0.0 0.0 5.394169330596924
                    }
                }
            }
        }
    }
    JOINT RightHip
    {
        OFFSET -13.480035781860352 0.0 0.0
        CHANNELS 3 Zrotation Xrotation Yrotation
        JOINT RightKnee
        {
            OFFSET 0.0 -41.1805419921875 0.0
            CHANNELS 3 Zrotation Xrotation Yrotation
            JOINT RightAnkle
            {
                OFFSET 0.0 -42.329689025878906 0.0
                CHANNELS 3 Zrotation Xrotation Yrotation
                JOINT RightFoot
                {
                    OFFSET 0.0 -13.485422134399414 0.0
                    CHANNELS 3 Zrotation Xrotation Yrotation
                    End Site
                    {
                        OFFSET 0.0 0.0 5.394169330596924
                    }
                }
            }
        }
    }
}
MOTION
Frames: 7
Frame Time: 0.03333333333333333
52.0 2.8999998569488525 253.80001831054688 -4.969721991285637 2.48013000459829 -3.3737901615759327 6.009693225571321 12.154349058014116 -0.9935982256670395 -7.321534546029329e-08 -1.7206979740146208e-06 -4.840909252955869 89.9850633577402 29.612066139549487 171.53421231686244 1.0912722720937833e-06 -1.1578080896124814e-06 23.79579317149744 -1.396941710592648e-07 -41.09170182965983 17.17374249615211 6.3611093629270335e-15 -4.770832022195275e-15 2.648343778830095e-31 -92.934861004836 39.96943680745824 -174.13686491117974 5.031181058587887e-06 1.972660356592061e-06 -14.569770259537814 -179.99999884843635 -75.58953542234754 154.5818063872322 0.0 0.0 0.0 9.954893223247261 -4.282548914931472 -37.63961507815765 -15.62866166590162 18.733496604574377 -14.821617814003684 91.80105054309757 -35.19559270385055 144.3924947527523 -8.827812596100317e-32 1.5902773407317582e-15 6.361109362927033e-15 2.1992314393841683 -3.8577456995068347 33.13332834388303 12.151826721830238 19.335076522888752 13.422857639763162 -89.21910148047844 -31.39021249058143 -140.95394263042527 3.1805546814635168e-15 -7.156248033292914e-15 4.770832022195275e-15
51.79999923706055 2.8000001907348633 253.6999969482422 -5.463835102041893 2.478331355732324 -3.7046194614830235 6.4248774717597 12.181113341844679 -0.814966046694042 -5.9414970481333384e-08 6.533500289364008e-07 -5.359381081673398 90.1588264142191 27.774436539657177 171.1906745936503 4.1288068717588155e-07 1.3410681157758617e-06 24.449592990414157 2.542216664570967e-06 -36.221056412333276 15.740684198297018 4.770832022195275e-15 -1.3241718894150476e-31 -3.1805546814635168e-15 -93.23370470721487 38.38357999500417 -173.65799764373648 6.796536982751313e-07 2.0960605861614992e-06 -15.00224300765524 -179.99999645289827 -74.52392731830749 153.62797746601916 0.0 0.0 3.1805546814635168e-15 10.601779246386087 -4.172670066922894 -37.4447873726793 -15.591521345196261 18.650042744208633 -14.32666378475025 91.7242530307317 -35.60973901186585 143.27639727509347 0.0 0.0 3.1805546814635164e-15 2.897270145126409 -4.482097761763832 33.07600047641937 12.503357233766799 20.438468237930266 14.192423651210158 -89.06800708839957 -30.791784491103915 -141.1186707439137 0.0 0.0 1.5902773407317584e-15
51.79999923706055 2.8000001907348633 253.6999969482422 -4.969740463174958 2.48028085821342 -3.738852344942212 5.96622962995286 11.637881676987593 -0.8629510970922697 -5.251434727403446e-08 -7.740342657827633e-07 -6.305673052193405 90.66306303528464 26.04518382858026 170.87845573125242 8.75379703691786e-07 -8.313136733869436e-07 24.919268489943985 1.5327464608711784e-06 -30.598521713104642 16.056679419726898 -7.95138670365879e-16 -1.5902773407317582e-15 4.770832022195274e-15 -93.55246654635961 34.291755237134176 -173.18612388174003 -1.3619397596324693e-06 5.671816474657663e-07 -15.812223034128104 -179.99998996028904 -73.26027703475823 153.29767859013282 0.0 0.0 0.0 10.123056565201068 -4.208857616606976 -37.93391652985856 -15.757697886677477 18.689702429901715 -14.531602245591277 91.38236417774496 -34.92849992937777 143.7134754951005 -6.361109362927033e-15 -6.361109362927033e-15 -3.531125038440127e-31 2.2695144865705092 -4.5243066666766145 32.839806689911576 12.778850819716034 20.28888526381028 13.888409214498134 -89.14247198567104 -31.27141315481902 -140.43266864720493 -6.361109362927033e-15 5.5659706925611536e-15 1.5902773407317584e-15
51.599998474121094 2.8000001907348633 253.50001525878906 -5.463853236290411 2.478179692438817 -5.2470040622841765 6.158703038684784 11.628040142520017 -0.8657773080969227 -3.571112423225939e-08 1.1774472553158575e-06 -5.69256066868769 91.1399609969311 23.69902567244173 171.14331106359137 1.6053417920287363e-06 1.8786235507793622e-06 25.897998404981962 -1.983368099914495e-06 -34.96693150544056 15.914262718901963 3.1805546814635168e-15 4.4139062980501586e-32 1.5902773407317584e-15 -93.03351058855908 31.137087786823457 -173.6679080846311 1.6313832053600628e-06 -1.63956538016885e-06 -17.339859803582005 179.99999418797398 -70.06324644567363 153.0104282227733 -6.3611093629270335e-15 1.7655625192200634e-31 -3.1805546814635168e-15 11.002906762694776 -3.8633408280561072 -38.76636907591452 -16.291944190401082 18.045496797408912 -13.911841698448827 91.22355451772938 -33.34396865426831 144.53114571102677 2.2069531490250793e-32 -1.5902773407317584e-15 1.5902773407317584e-15 3.3149269647364634 -4.64893854801681 32.20786396226543 11.678643285978168 20.738700344168908 14.323616448966298 -88.20614730349135 -33.1018460059756 -138.1431096248799 0.0 0.0 6.3611093629270335e-15
51.5 2.700000047683716 253.3000030517578 -5.463853649414712 2.478331108199379 -5.270204129961876 6.169620153680767 11.419517799318518 -0.7815712406562155 -5.328050185106785e-08 -6.990122061083702e-07 -6.570287231516247 91.7377570426161 24.926699102075347 171.6187739881073 5.385109619801619e-06 2.196037804565054e-06 27.045130792709568 -1.9843089022797243e-06 -33.53400785721916 15.365150655398832 2.385416011097637e-15 1.5902773407317582e-15 3.1805546814635164e-15 -92.46106313363711 26.87562867788104 -174.7212701858742 1.82477139505626e-06 5.751195003691373e-07 -18.649942580066444 179.99999510981314 -68.21739268344392 152.54598623437647 0.0 -3.975693351829396e-16 0.0 10.821671375402712 -3.450224909749655 -38.53502219805016 -15.58697450178487 17.691462053949042 -13.69715573838892 91.82897237810464 -33.824877230622086 144.93514091394144 -1.7655625192200634e-31 6.3611093629270335e-15 3.1805546814635168e-15 3.0639625588408133 -4.951319518807858 32.649268645591334 12.530131633822961 20.985148721639337 14.669170306742586 -89.75001797402601 -32.16571236047641 -140.85243766887686 0.0 0.0 -9.54166404439055e-15
51.400001525878906 2.700000047683716 253.0 -5.463816173786599 2.9731216696411376 -5.969180118624701 6.088210974729041 10.794833060054298 -0.7046874909479524 -4.5050342826796536e-08 -3.424524075529841e-07 -6.671292248168613 92.29303507206579 24.30245318032406 172.0253817284439 1.894039908629769e-06 -1.5303854387434426e-06 28.97634687015668 1.0172023045534489e-06 -43.26217472299048 18.443491968156554 1.5902773407317584e-15 4.4139062980501586e-32 3.1805546814635168e-15 -92.10436284465558 23.942662792397563 -176.31719891797673 -1.6126262190336627e-06 4.250872914960541e-06 -19.30579658443468 -179.99999786123527 -62.791741599278765 154.66697141495274 0.0 0.0 0.0 10.938422574948673 -4.079639505366144 -38.48849493431149 -15.844298920901672 17.92651379406139 -13.82794109058937 91.88138238267771 -32.93662447418587 145.49146329090254 6.3611093629270335e-15 4.770832022195275e-15 -2.648343778830095e-31 3.4656463948174023 -5.512228262009237 31.972809801342187 11.741301217899723 21.08633122792834 14.832025471373129 -89.76110179819321 -33.42827770694883 -140.0582062411211 1.5902773407317584e-15 -6.3611093629270335e-15 3.1805546814635168e-15
51.30000305175781 2.700000047683716 252.6999969482422 -4.9697217036627155 3.470193451629863 -6.851035227821038 5.352414389600377 9.975148035099606 -0.8603028941696976 -1.2082147394379883e-07 1.3648949893360338e-06 -5.918025226200757 93.05737971236839 24.308874551409904 172.07652790501982 -1.9037974520698247e-07 -1.989267060943604e-06 31.766660931435446 -4.151432259992259e-06 -49.73318330737607 17.520808828748766 6.620859447075238e-32 -4.770832022195274e-15 1.5902773407317582e-15 -91.57152078235607 20.94919990816359 -177.3701907590058 -1.552764907259968e-06 2.5513531625300783e-06 -21.02724857711931 -179.99999830176063 -56.673895259723 152.06564075835948 0.0 0.0 0.0 10.940883267458991 -4.988220246761702 -39.953923947325094 -17.04550864203694 17.96692123714065 -14.13865246503036 92.67396068334413 -30.525365809434625 148.5087846434073 2.2069531490250793e-31 -7.951386703658792e-15 3.1805546814635168e-15 3.3640043969053424 -5.700362534632028 31.686571363235746 10.913162268787405 20.290791335714463 13.896003365654789 -88.91765359982236 -35.64069366164844 -136.91529069584234 0.0 0.0 -3.1805546814635183e-15
